#Comment line ignore any data following # character 
#Hierarchical Translation and Rotation (.htr) file 
[Header]	
#Header keywords are followed by a single value 
FileType HTR		#Single word string
DataType HTRS		#Translation followed by rotation and scale data
FileVersion 1		#integer
NumSegments 25		#integer
NumFrames 5		#integer
DataFrameRate 30		#integer, data frame rate in this file
EulerRotationOrder ZYX
CalibrationUnits mm
RotationUnits Degrees
GlobalAxisofGravity Y
BoneLengthAxis Y
ScaleFactor 1.00
[SegmentNames&Hierarchy]
#CHILD	PARENT
BN_Tick_Root GLOBAL
BN_Torso BN_Tick_Root
BN_L_Leg_Front01 BN_Torso
BN_L_Leg_Rear01 BN_Torso
BN_MetalTop BN_Torso
BN_Neck BN_Torso
BN_R_Leg_Front01 BN_Torso
BN_R_Leg_Rear01 BN_Torso
BN_Sack BN_Torso
BN_L_Leg_Front02 BN_L_Leg_Front01
BN_L_Leg_Front03 BN_L_Leg_Front02
BN_L_Leg_Rear02 BN_L_Leg_Rear01
BN_L_Leg_Rear03 BN_L_Leg_Rear02
BN_Head BN_Neck
BN_Needle BN_Head
BN_R_Leg_Front02 BN_R_Leg_Front01
BN_R_Leg_Front03 BN_R_Leg_Front02
BN_R_Leg_Rear02 BN_R_Leg_Rear01
BN_R_Leg_Rear03 BN_R_Leg_Rear02
BN_SackDef01 BN_Sack
BN_SackDef02 BN_Sack
BN_SackDef03 BN_Sack
BN_SackDef04 BN_Sack
BN_SackDef05 BN_Sack
BN_SackDef06 BN_Sack
[BasePosition]
#SegmentName Tx, Ty, Tz, Rx, Ry, Rz, BoneLength
BN_Tick_Root 0.000000 0.000000 0.000000 -90.000000 0.000000 0.000000 10.000000 
BN_Torso 0.000000 0.000000 0.000000 0.000000 0.000000 0.000000 10.000000 
BN_L_Leg_Front01 0.000000 0.000000 0.000000 0.000000 0.000000 0.000000 10.000000 
BN_L_Leg_Rear01 0.000000 0.000000 0.000000 0.000000 0.000000 0.000000 10.000000 
BN_MetalTop 0.000000 0.000000 0.000000 0.000000 0.000000 0.000000 10.000000 
BN_Neck 0.000000 0.000000 0.000000 0.000000 0.000000 0.000000 10.000000 
BN_R_Leg_Front01 0.000000 0.000000 0.000000 0.000000 0.000000 0.000000 10.000000 
BN_R_Leg_Rear01 0.000000 0.000000 0.000000 0.000000 0.000000 0.000000 10.000000 
BN_Sack 0.000000 0.000000 0.000000 0.000000 0.000000 0.000000 10.000000 
BN_L_Leg_Front02 0.000000 0.000000 0.000000 0.000000 0.000000 0.000000 10.000000 
BN_L_Leg_Front03 0.000000 0.000000 0.000000 0.000000 0.000000 0.000000 10.000000 
BN_L_Leg_Rear02 0.000000 0.000000 0.000000 0.000000 0.000000 0.000000 10.000000 
BN_L_Leg_Rear03 0.000000 0.000000 0.000000 0.000000 0.000000 0.000000 10.000000 
BN_Head 0.000000 0.000000 0.000000 0.000000 0.000000 0.000000 10.000000 
BN_Needle 0.000000 0.000000 0.000000 0.000000 0.000000 0.000000 10.000000 
BN_R_Leg_Front02 0.000000 0.000000 0.000000 0.000000 0.000000 0.000000 10.000000 
BN_R_Leg_Front03 0.000000 0.000000 0.000000 0.000000 0.000000 0.000000 10.000000 
BN_R_Leg_Rear02 0.000000 0.000000 0.000000 0.000000 0.000000 0.000000 10.000000 
BN_R_Leg_Rear03 0.000000 0.000000 0.000000 0.000000 0.000000 0.000000 10.000000 
BN_SackDef01 0.000000 0.000000 0.000000 0.000000 0.000000 0.000000 10.000000 
BN_SackDef02 0.000000 0.000000 0.000000 0.000000 0.000000 0.000000 10.000000 
BN_SackDef03 0.000000 0.000000 0.000000 0.000000 0.000000 0.000000 10.000000 
BN_SackDef04 0.000000 0.000000 0.000000 0.000000 0.000000 0.000000 10.000000 
BN_SackDef05 0.000000 0.000000 0.000000 0.000000 0.000000 0.000000 10.000000 
BN_SackDef06 0.000000 0.000000 0.000000 0.000000 0.000000 0.000000 10.000000 
#Beginning of Data. Separated by tabs
#Fr	Tx	Ty	Tz	Rx	Ry	Rz	SF
[BN_Tick_Root]
138 0.000000 -277.735382 0.000000 0.000000 0.000000 -0.000020 277.735382
139 0.000000 -277.735382 0.000000 0.000000 0.000000 -0.000020 277.735382
140 0.000000 -277.735382 0.000000 0.000000 0.000000 -0.000020 277.735382
141 0.000000 -277.735382 0.000000 0.000000 0.000000 -0.000020 277.735382
142 0.000000 -277.735382 0.000000 0.000000 0.000000 -0.000020 277.735382
[BN_Torso]
138 14.048702 34.052807 204.588470 -25.722710 -3.189499 5.251761 207.878342
139 13.675262 33.487640 207.020752 -25.354424 -3.209634 5.215622 210.157135
140 13.301823 32.922474 209.453033 -24.986124 -3.229538 5.179353 212.441513
141 12.928383 32.357304 211.885300 -24.617802 -3.249206 5.142955 214.731277
142 12.563109 32.179398 212.991150 -24.192001 -3.267571 5.110453 215.774353
[BN_L_Leg_Front01]
138 -68.477791 10.734189 -26.804373 -70.937630 29.465593 129.241547 74.316254
139 -68.477791 10.734189 -26.804373 -70.609177 30.047602 129.228882 74.316254
140 -68.477791 10.734189 -26.804373 -70.261765 30.681974 129.287552 74.316254
141 -68.477791 10.734189 -26.804373 -69.911247 31.316055 129.351151 74.316254
142 -68.477791 10.734189 -26.804373 -69.557541 31.949755 129.419739 74.316254
[BN_L_Leg_Rear01]
138 -72.133743 -73.994843 -18.268616 14.618753 60.607040 179.727127 104.939293
139 -72.133743 -73.994843 -18.268616 14.796392 60.798691 179.795898 104.939293
140 -72.133743 -73.994843 -18.268616 14.975579 60.990231 179.866302 104.939293
141 -72.133743 -73.994843 -18.268616 15.466249 61.133499 -179.723801 104.939293
142 -72.133743 -73.994843 -18.268616 15.961323 61.275036 -179.309418 104.939293
[BN_MetalTop]
138 0.000008 13.737477 26.403606 95.668961 -32.488811 -99.254463 29.763546
139 0.000008 13.737477 26.403606 95.540260 -32.497482 -99.092308 29.763546
140 0.000008 13.737477 26.403606 95.411530 -32.505703 -98.930176 29.763546
141 0.000008 13.737477 26.403606 95.282745 -32.513618 -98.767982 29.763546
142 0.000008 13.737477 26.403606 95.156189 -32.508858 -98.704025 29.763546
[BN_Neck]
138 0.000014 95.233284 10.002091 -89.999672 -65.297531 89.999657 95.757088
139 0.000014 95.233284 10.002091 -89.999672 -65.297531 89.999657 95.757088
140 0.000014 95.233284 10.002091 -89.999672 -65.297531 89.999657 95.757088
141 0.000014 95.233284 10.002091 -89.999672 -65.297531 89.999657 95.757088
142 0.000014 95.233284 10.002091 -89.999672 -65.297531 89.999657 95.757088
[BN_R_Leg_Front01]
138 68.477768 10.734107 -26.804314 78.849907 39.901272 55.162926 74.316193
139 68.477768 10.734107 -26.804314 78.625145 40.441685 55.181885 74.316193
140 68.477768 10.734107 -26.804314 78.377724 41.053020 55.105583 74.316193
141 68.477768 10.734107 -26.804314 78.126884 41.664143 55.025009 74.316193
142 68.477768 10.734107 -26.804314 77.872444 42.274952 54.940029 74.316193
[BN_R_Leg_Rear01]
138 72.133751 -73.994873 -18.268644 40.040161 74.103256 48.246231 104.939331
139 72.133751 -73.994873 -18.268644 39.959129 74.138451 48.571949 104.939331
140 72.133751 -73.994873 -18.268644 39.637428 74.270111 48.574680 104.939331
141 72.133751 -73.994873 -18.268644 39.313042 74.401794 48.574608 104.939331
142 72.133751 -73.994873 -18.268644 38.294434 74.636864 47.817265 104.939331
[BN_Sack]
138 -0.000000 -78.024918 33.657791 93.855652 -2.527375 -105.072128 84.974907
139 -0.000000 -78.024918 33.657791 93.689804 -3.549773 -104.219940 84.974907
140 -0.000000 -78.024918 33.657791 93.508453 -4.569650 -103.363586 84.974907
141 -0.000000 -78.024918 33.657791 93.311554 -5.586559 -102.502754 84.974907
142 -0.000000 -78.024918 33.657791 93.033821 -6.494166 -101.632294 84.974907
[BN_L_Leg_Front02]
138 142.805023 -0.000015 -0.000104 0.118420 0.506919 -112.931877 142.805023
139 142.805023 -0.000015 -0.000104 0.122969 0.499309 -112.207970 142.805023
140 142.805023 -0.000015 -0.000104 0.127422 0.491641 -111.484039 142.805023
141 142.805023 -0.000015 -0.000104 0.127061 0.486928 -110.914581 142.805023
142 142.805023 -0.000015 -0.000104 0.129814 0.479652 -110.559937 142.805023
[BN_L_Leg_Front03]
138 124.143021 -0.000045 0.000007 0.352604 -0.380874 121.605850 124.143021
139 124.143021 -0.000045 0.000007 0.353555 -0.383324 120.943748 124.143021
140 124.143021 -0.000045 0.000007 0.354534 -0.385762 120.281670 124.143021
141 124.143021 -0.000045 0.000007 0.354566 -0.390844 119.739136 124.143021
142 124.143021 -0.000045 0.000007 0.351447 -0.392293 119.401421 124.143021
[BN_L_Leg_Rear02]
138 139.939041 0.000075 -0.000022 0.087632 -0.219164 92.964241 139.939041
139 139.939041 0.000075 -0.000022 0.088075 -0.218986 92.732361 139.939041
140 139.939041 0.000075 -0.000022 0.088638 -0.218759 92.437820 139.939041
141 139.939041 0.000075 -0.000022 0.089199 -0.218530 92.143250 139.939041
142 139.939041 0.000075 -0.000022 0.089448 -0.218428 92.012672 139.939041
[BN_L_Leg_Rear03]
138 142.839615 0.000179 -0.000060 0.000434 -0.002307 -111.332382 142.839615
139 142.839615 0.000179 -0.000060 0.000429 -0.002308 -111.059860 142.839615
140 142.839615 0.000179 -0.000060 0.000422 -0.002309 -110.714233 142.839615
141 142.839615 0.000179 -0.000060 0.000415 -0.002310 -110.368561 142.839615
142 142.839615 0.000179 -0.000060 0.000412 -0.002311 -110.211838 142.839615
[BN_Head]
138 57.062447 -0.000030 0.000000 5.724378 18.862120 -1.817809 57.062447
139 57.062447 -0.000030 0.000000 5.760602 18.849802 -1.405809 57.062447
140 57.062447 -0.000030 0.000000 5.796726 18.837238 -0.993806 57.062447
141 57.062447 -0.000030 0.000000 5.832752 18.824430 -0.581838 57.062447
142 57.062447 -0.000030 0.000000 5.868675 18.811377 -0.169922 57.062447
[BN_Needle]
138 33.574196 60.391388 0.000006 0.000003 0.000030 87.896805 69.096649
139 33.574196 60.391388 0.000008 0.000003 0.000030 87.896805 69.096649
140 33.574200 60.391388 0.000009 0.000003 0.000030 87.896805 69.096649
141 33.574200 60.391388 0.000010 0.000003 0.000030 87.896805 69.096649
142 33.574200 60.391388 0.000012 0.000003 0.000030 87.896805 69.096649
[BN_R_Leg_Front02]
138 142.804947 -0.000060 0.000060 -0.056223 0.640813 125.384460 142.804947
139 142.804947 -0.000060 0.000060 -0.061964 0.627669 124.173180 142.804947
140 142.804947 -0.000060 0.000060 -0.067424 0.614409 122.962029 142.804947
141 142.804947 -0.000060 0.000060 -0.076597 0.600356 121.968971 142.804947
142 142.804947 -0.000060 0.000060 -0.077908 0.595549 121.255081 142.804947
[BN_R_Leg_Front03]
138 124.143005 -0.000060 -0.000156 -0.351359 -0.332946 -132.184998 124.143005
139 124.143005 -0.000060 -0.000156 -0.352684 -0.338825 -131.231995 124.143005
140 124.143005 -0.000060 -0.000156 -0.354107 -0.344683 -130.278976 124.143005
141 124.143005 -0.000060 -0.000156 -0.352041 -0.344306 -129.476379 124.143005
142 124.143005 -0.000060 -0.000156 -0.351468 -0.349095 -128.890457 124.143005
[BN_R_Leg_Rear02]
138 139.939011 -0.000149 0.000015 -0.002857 -0.252528 -119.212227 139.939011
139 139.939011 -0.000149 0.000015 -0.005104 -0.250257 -118.452843 139.939011
140 139.939011 -0.000149 0.000015 -0.007321 -0.247954 -117.693405 139.939011
141 139.939011 -0.000149 0.000015 -0.009506 -0.245622 -116.933998 139.939011
142 139.939011 -0.000149 0.000015 -0.011401 -0.256595 -116.515663 139.939011
[BN_R_Leg_Rear03]
138 142.839417 0.000075 0.000119 0.002154 -0.000933 136.818771 142.839417
139 142.839417 0.000075 0.000119 0.002159 -0.000922 136.252304 142.839417
140 142.839417 0.000075 0.000119 0.002163 -0.000911 135.662186 142.839417
141 142.839417 0.000075 0.000119 0.002168 -0.000900 135.072067 142.839417
142 142.839417 0.000075 0.000119 0.002171 -0.000893 134.729279 142.839417
[BN_SackDef01]
138 597.936646 -15.746925 103.387077 -128.408218 -44.374973 -11.740845 607.013245
139 597.936646 -15.746922 103.387077 -128.408218 -44.374973 -11.740845 607.013245
140 597.936646 -15.746920 103.387077 -128.408218 -44.374973 -11.740845 607.013245
141 597.936646 -15.746916 103.387077 -128.408218 -44.374973 -11.740845 607.013245
142 597.936646 -15.746914 103.387085 -128.408218 -44.374973 -11.740845 607.013245
[BN_SackDef02]
138 233.072205 -211.160019 118.223625 32.077126 -27.375721 -88.781525 335.988159
139 233.072205 -211.160019 118.223625 32.077126 -27.375721 -88.781525 335.988159
140 233.072205 -211.160019 118.223625 32.077126 -27.375721 -88.781525 335.988159
141 233.072205 -211.160019 118.223625 32.077126 -27.375721 -88.781525 335.988159
142 233.072205 -211.160019 118.223625 32.077126 -27.375721 -88.781525 335.988159
[BN_SackDef03]
138 597.936523 -15.746951 -103.387146 18.144459 44.375008 -11.740894 607.013123
139 597.936523 -15.746949 -103.387146 18.144459 44.375008 -11.740894 607.013123
140 597.936523 -15.746947 -103.387146 18.144459 44.375008 -11.740894 607.013123
141 597.936523 -15.746945 -103.387146 18.144459 44.375008 -11.740894 607.013123
142 597.936523 -15.746943 -103.387146 18.144459 44.375008 -11.740894 607.013123
[BN_SackDef04]
138 233.072037 -211.159988 -118.223358 146.059982 27.375723 -88.781555 335.987915
139 233.072037 -211.159988 -118.223358 146.059982 27.375723 -88.781555 335.987915
140 233.072037 -211.159988 -118.223358 146.059982 27.375723 -88.781555 335.987915
141 233.072037 -211.159988 -118.223358 146.059982 27.375723 -88.781555 335.987915
142 233.072037 -211.159988 -118.223358 146.059982 27.375723 -88.781555 335.987915
[BN_SackDef05]
138 289.340973 263.516907 -164.100372 0.155741 51.314110 90.605110 424.368103
139 289.340973 263.516907 -164.100372 0.155741 51.314110 90.605110 424.368103
140 289.340973 263.516937 -164.100372 0.155741 51.314110 90.605110 424.368134
141 289.340973 263.516937 -164.100372 0.155741 51.314110 90.605110 424.368134
142 289.340973 263.516937 -164.100372 0.155741 51.314110 90.605110 424.368134
[BN_SackDef06]
138 289.341156 263.517029 164.100052 152.058487 -51.314072 90.605019 424.368195
139 289.341156 263.517029 164.100052 152.058487 -51.314072 90.605019 424.368195
140 289.341156 263.517029 164.100052 152.058487 -51.314072 90.605019 424.368195
141 289.341156 263.517029 164.100052 152.058487 -51.314072 90.605019 424.368195
142 289.341156 263.517029 164.100052 152.058487 -51.314072 90.605019 424.368195
